<svg id="Layer_1" data-name="Layer 1" xmlns="http://www.w3.org/2000/svg" viewBox="0 0 600 600"><defs><style>.cls-1{fill:#fff;}.cls-2{fill:#010101;}</style></defs><title>tick</title><rect class="cls-1" width="600" height="600"/><path class="cls-2" d="M221,143.24,201.5,109.49a9.74,9.74,0,0,0-16.88,9.74L204.11,153a9.71,9.71,0,0,0,8.44,4.88A9.75,9.75,0,0,0,221,143.24Z"/><path class="cls-2" d="M153.23,203.87l-33.75-19.49a9.75,9.75,0,0,0-9.75,16.88l33.75,19.48a9.71,9.71,0,0,0,13.29-3.56A9.72,9.72,0,0,0,153.23,203.87Z"/><path class="cls-2" d="M156.78,382.82a9.77,9.77,0,0,0-13.32-3.56l-33.75,19.48a9.75,9.75,0,0,0,4.87,18.19,9.62,9.62,0,0,0,4.88-1.31l33.75-19.49A9.72,9.72,0,0,0,156.78,382.82Z"/><path class="cls-2" d="M217.42,443.45A9.75,9.75,0,0,0,204.11,447l-19.49,33.75a9.74,9.74,0,0,0,16.88,9.74L221,456.76A9.75,9.75,0,0,0,217.42,443.45Z"/><path class="cls-2" d="M124.85,290.26h-39a9.74,9.74,0,1,0,0,19.48h39a9.74,9.74,0,1,0,0-19.48Z"/><path class="cls-2" d="M465.89,300a9.74,9.74,0,0,1,9.74-9.74h48.24a222.5,222.5,0,0,0-25-93.68L457,220.74a9.74,9.74,0,1,1-9.74-16.87L489,179.74A225.43,225.43,0,0,0,420.5,111.2L396.38,153a9.74,9.74,0,0,1-16.88-9.74l24.16-41.86A222.64,222.64,0,0,0,300.24,75.89a9.75,9.75,0,0,0-9.74,9.75V514.36a9.75,9.75,0,0,0,9.74,9.75,222.71,222.71,0,0,0,103.43-25.49L379.5,456.76A9.74,9.74,0,0,1,396.38,447L420.5,488.8A225.43,225.43,0,0,0,489,420.26l-41.78-24.13A9.74,9.74,0,1,1,457,379.26l41.86,24.16a222.5,222.5,0,0,0,25-93.68H475.63A9.74,9.74,0,0,1,465.89,300Z"/></svg>